<?xml version="1.0" encoding="utf-8"?>
<!-- Generator: Adobe Illustrator 26.4.1, SVG Export Plug-In . SVG Version: 6.00 Build 0)  -->
<svg version="1.1" id="Camada_1" xmlns="http://www.w3.org/2000/svg" xmlns:xlink="http://www.w3.org/1999/xlink" x="0px" y="0px"
	 viewBox="0 0 16 16" style="enable-background:new 0 0 16 16;" xml:space="preserve">
<style type="text/css">
	.st0{fill:#F5E600;}
	.st1{fill:#FFFFFF;}
</style>
<g>
	<g>
		<path class="st0" d="M8,15.71c-0.23,0-0.44-0.09-0.6-0.25L0.53,8.6C0.37,8.44,0.29,8.23,0.29,8c0-0.23,0.09-0.44,0.25-0.6
			L7.4,0.53C7.56,0.37,7.77,0.29,8,0.29c0.23,0,0.44,0.09,0.6,0.25l6.87,6.87c0.16,0.16,0.25,0.37,0.25,0.6
			c0,0.23-0.09,0.44-0.25,0.6L8.6,15.47C8.44,15.63,8.23,15.71,8,15.71z"/>
		<path class="st1" d="M8,0.41c0.18,0,0.37,0.07,0.51,0.21l6.87,6.87c0.28,0.28,0.28,0.73,0,1.01l-6.87,6.87
			C8.37,15.52,8.18,15.59,8,15.59c-0.18,0-0.37-0.07-0.51-0.21L0.62,8.51c-0.28-0.28-0.28-0.73,0-1.01l6.87-6.87
			C7.63,0.48,7.82,0.41,8,0.41 M8,0.16c-0.26,0-0.5,0.1-0.69,0.29L0.44,7.31c-0.38,0.38-0.38,1,0,1.38l6.87,6.87
			C7.5,15.74,7.74,15.84,8,15.84c0.26,0,0.5-0.1,0.69-0.29l6.87-6.87c0.38-0.38,0.38-1,0-1.38L8.69,0.44C8.5,0.26,8.26,0.16,8,0.16
			L8,0.16z"/>
	</g>
	<path d="M8,0.16c0.25,0,0.5,0.1,0.7,0.29l6.86,6.86c0.38,0.38,0.38,1.01,0,1.39L8.7,15.56C8.5,15.75,8.25,15.84,8,15.84
		c-0.25,0-0.5-0.1-0.7-0.29L0.44,8.7c-0.38-0.38-0.38-1.01,0-1.39L7.3,0.44C7.5,0.25,7.75,0.16,8,0.16 M8,0
		C7.7,0,7.41,0.12,7.2,0.33L0.33,7.2C0.12,7.41,0,7.7,0,8s0.12,0.59,0.33,0.8l6.86,6.86C7.41,15.88,7.7,16,8,16
		c0.3,0,0.59-0.12,0.8-0.33l6.86-6.86C15.88,8.59,16,8.3,16,8s-0.12-0.59-0.33-0.8L8.8,0.33C8.59,0.12,8.3,0,8,0L8,0z"/>
</g>
<path d="M9.93,12.62c0.14-0.06,0.22-0.21,0.2-0.35c0-0.03-0.01-0.05-0.02-0.08L6.81,4.38c0.07-0.12,0.11-0.26,0.09-0.4
	c-0.01-0.05-0.02-0.1-0.04-0.14C6.73,3.54,6.39,3.4,6.09,3.52C5.84,3.63,5.7,3.89,5.74,4.15c0.01,0.05,0.02,0.1,0.04,0.14
	C5.86,4.47,6.02,4.6,6.2,4.63l3.29,7.81C9.57,12.62,9.76,12.7,9.93,12.62z"/>
<path d="M6.18,12.62c-0.14-0.06-0.22-0.21-0.2-0.35c0-0.03,0.01-0.05,0.02-0.08l3.29-7.81c-0.07-0.12-0.11-0.26-0.09-0.4
	c0.01-0.05,0.02-0.1,0.04-0.14c0.13-0.3,0.47-0.44,0.77-0.31c0.25,0.11,0.39,0.37,0.35,0.62c-0.01,0.05-0.02,0.1-0.04,0.14
	C10.25,4.47,10.09,4.6,9.9,4.63l-3.29,7.81C6.54,12.62,6.35,12.7,6.18,12.62z"/>
</svg>
