<?xml version="1.0" encoding="utf-8"?>
<!-- Generator: Adobe Illustrator 25.4.2, SVG Export Plug-In . SVG Version: 6.00 Build 0)  -->
<svg version="1.1" id="Camada_1" xmlns="http://www.w3.org/2000/svg" xmlns:xlink="http://www.w3.org/1999/xlink" x="0px" y="0px"
	 viewBox="0 0 150 150" style="enable-background:new 0 0 150 150;" xml:space="preserve">
<style type="text/css">
	.st0{fill:#FADC81;}
</style>
<g>
	<path class="st0" d="M83.1,36.2c-16.5,0-29.9,13.4-29.9,29.9c0,10.4,4.5,20.3,12.4,27.2c5.1,4.4,8,10.8,8,17.6v9.3c0,1.1,0.9,2,2,2
		h15c1.1,0,2-0.9,2-2v-9.3c0-6.7,2.9-13.1,8-17.6c7.9-6.8,12.4-16.7,12.4-27.2C113,49.6,99.6,36.2,83.1,36.2z"/>
	<g>
		<path d="M82.5,124.3h-15c-4.1,0-7.5-3.4-7.5-7.5v-9.3c0-5.1-2.2-10-6.1-13.4c-9.1-7.9-14.3-19.3-14.3-31.4
			c0-19.5,15.9-35.4,35.4-35.4s35.4,15.9,35.4,35.4c0,12-5.2,23.5-14.3,31.4c-3.9,3.4-6.1,8.2-6.1,13.4v9.3
			C90,121,86.6,124.3,82.5,124.3z M75,32.9c-16.5,0-29.9,13.4-29.9,29.9c0,10.4,4.5,20.3,12.4,27.2c5.1,4.4,8,10.8,8,17.6v9.3
			c0,1.1,0.9,2,2,2h15c1.1,0,2-0.9,2-2v-9.3c0-6.7,2.9-13.1,8-17.6c7.9-6.8,12.4-16.7,12.4-27.2C104.9,46.3,91.5,32.9,75,32.9z"/>
	</g>
	<g>
		<path d="M33.8,105.1c-0.7,0-1.4-0.3-2-0.8c-1.1-1.1-1.1-2.8,0-3.9l10.3-10.3c1.1-1.1,2.8-1.1,3.9,0c1.1,1.1,1.1,2.8,0,3.9
			l-10.3,10.3C35.2,104.8,34.5,105.1,33.8,105.1z"/>
	</g>
	<g>
		<path d="M33.8,105.1c-0.7,0-1.4-0.3-2-0.8c-1.1-1.1-1.1-2.8,0-3.9l10.3-10.3c1.1-1.1,2.8-1.1,3.9,0c1.1,1.1,1.1,2.8,0,3.9
			l-10.3,10.3C35.2,104.8,34.5,105.1,33.8,105.1z"/>
	</g>
	<g>
		<path d="M31.3,63.9H16.7c-1.5,0-2.8-1.2-2.8-2.8c0-1.5,1.2-2.8,2.8-2.8h14.6c1.5,0,2.8,1.2,2.8,2.8C34,62.6,32.8,63.9,31.3,63.9z"
			/>
	</g>
	<g>
		<path d="M44.1,32.9c-0.7,0-1.4-0.3-2-0.8L31.8,21.8c-1.1-1.1-1.1-2.8,0-3.9c1.1-1.1,2.8-1.1,3.9,0L46,28.2c1.1,1.1,1.1,2.8,0,3.9
			C45.5,32.7,44.8,32.9,44.1,32.9z"/>
	</g>
	<g>
		<path d="M75,20.1c-1.5,0-2.8-1.2-2.8-2.8V2.8C72.2,1.2,73.5,0,75,0c1.5,0,2.8,1.2,2.8,2.8v14.6C77.8,18.9,76.5,20.1,75,20.1z"/>
	</g>
	<g>
		<path d="M105.9,32.9c-0.7,0-1.4-0.3-2-0.8c-1.1-1.1-1.1-2.8,0-3.9l10.3-10.3c1.1-1.1,2.8-1.1,3.9,0c1.1,1.1,1.1,2.8,0,3.9
			l-10.3,10.3C107.3,32.7,106.6,32.9,105.9,32.9z"/>
	</g>
	<g>
		<path d="M133.3,63.9h-14.6c-1.5,0-2.8-1.2-2.8-2.8c0-1.5,1.2-2.8,2.8-2.8h14.6c1.5,0,2.8,1.2,2.8,2.8
			C136.1,62.6,134.8,63.9,133.3,63.9z"/>
	</g>
	<g>
		<path d="M116.2,105.1c-0.7,0-1.4-0.3-2-0.8L104,94c-1.1-1.1-1.1-2.8,0-3.9c1.1-1.1,2.8-1.1,3.9,0l10.3,10.3c1.1,1.1,1.1,2.8,0,3.9
			C117.7,104.8,116.9,105.1,116.2,105.1z"/>
	</g>
	<g>
		<path d="M85.4,134.6H64.7c-1.5,0-2.8-1.2-2.8-2.8c0-1.5,1.2-2.8,2.8-2.8h20.7c1.5,0,2.8,1.2,2.8,2.8
			C88.2,133.3,86.9,134.6,85.4,134.6z"/>
	</g>
	<g>
		<path d="M85.4,142.3H64.7c-1.5,0-2.8-1.2-2.8-2.8c0-1.5,1.2-2.8,2.8-2.8h20.7c1.5,0,2.8,1.2,2.8,2.8
			C88.2,141,86.9,142.3,85.4,142.3z"/>
	</g>
	<g>
		<path d="M80.4,150H69.8c-1.5,0-2.8-1.2-2.8-2.8s1.2-2.8,2.8-2.8h10.6c1.5,0,2.8,1.2,2.8,2.8S81.9,150,80.4,150z"/>
	</g>
</g>
</svg>
