<?xml version="1.0" encoding="utf-8"?>
<!-- Generator: Adobe Illustrator 25.4.2, SVG Export Plug-In . SVG Version: 6.00 Build 0)  -->
<svg version="1.1" id="Camada_1" xmlns="http://www.w3.org/2000/svg" xmlns:xlink="http://www.w3.org/1999/xlink" x="0px" y="0px"
	 viewBox="0 0 150 150" style="enable-background:new 0 0 150 150;" xml:space="preserve">
<style type="text/css">
	.st0{fill:#F7F7F7;}
</style>
<path class="st0" d="M145.4,31.5H33.7c-2.5,0-4.6,2.1-4.6,4.6v38.4H43c3.7,0,7.3,1.7,9.6,4.7l14.1,18.2l14.4-10.3
	c2.3-1.6,5.4-1.3,7.3,0.8c2.1,2.3,1.9,5.8-0.4,7.8l-11,9.7h68.4c2.5,0,4.6-2.1,4.6-4.6V36.2C150,33.6,147.9,31.5,145.4,31.5z
	 M40.6,65.3c-5.1,0-9.2-4.1-9.2-9.2c0-5.1,4.1-9.2,9.2-9.2c5.1,0,9.2,4.1,9.2,9.2C49.8,61.1,45.7,65.3,40.6,65.3z"/>
<path d="M88.3,90.3c-0.5,0-1-0.1-1.4-0.4c-1.4-0.8-2-2.6-1.2-4l14.5-26.7c0.8-1.4,2.6-2,4-1.2c1.4,0.8,2,2.6,1.2,4L90.9,88.8
	C90.3,89.7,89.3,90.3,88.3,90.3z"/>
<path d="M40.6,71.2c-8.3,0-15.1-6.8-15.1-15.1s6.8-15.1,15.1-15.1S55.7,47.7,55.7,56S48.9,71.2,40.6,71.2z M40.6,46.8
	c-5.1,0-9.2,4.1-9.2,9.2s4.1,9.2,9.2,9.2s9.2-4.1,9.2-9.2S45.7,46.8,40.6,46.8z"/>
<g>
	<polygon points="65.7,96.2 66.7,97.4 68.3,96.2 	"/>
	<polygon points="55.1,102.1 53.4,100 53.4,102.1 	"/>
	<path d="M137.2,19.2h-115c-3.4,0-6.2,2.8-6.2,6.2v58.1l2.9-4c0.8-1.2,1.9-2.1,3-2.9V25.4c0-0.2,0.1-0.3,0.3-0.3h115
		c0.2,0,0.3,0.1,0.3,0.3v70.6c0,0.2-0.1,0.3-0.3,0.3H87.4l-6.7,5.9h56.5c3.4,0,6.2-2.8,6.2-6.2V25.4
		C143.3,21.9,140.6,19.2,137.2,19.2z"/>
	<path d="M21.5,102.1l1.1-5.5l-3.4,4.7C19.9,101.7,20.6,102,21.5,102.1z"/>
</g>
<path d="M53.4,131.4H18c-1.6,0-2.9-1.3-2.9-2.9l-0.1-6.8l-11.3-9.5c-4.2-3.6-5-9.9-1.8-14.4l14.5-20c2.8-3.9,7.4-6.2,12.2-6.2H43
	c4.6,0,9.1,2.2,11.9,5.8l12.4,16l12.1-8.7c3.5-2.5,8.3-2,11.2,1.2c1.5,1.7,2.3,3.9,2.2,6.1c-0.1,2.3-1.1,4.4-2.8,5.9l-15.5,13.6
	c-2.4,2.2-5.7,3.2-9,2.9c-3.2-0.3-6.2-2-8.2-4.6l-0.9-1.2v19.8C56.3,130,55,131.4,53.4,131.4z M20.9,125.5h29.5V100
	c0-1.3,0.8-2.4,2-2.8c1.2-0.4,2.5,0,3.3,1l6.2,8.1c1,1.3,2.5,2.1,4.1,2.3c1.6,0.2,3.2-0.4,4.5-1.4l15.5-13.6
	c0.5-0.4,0.8-1.1,0.8-1.8c0-0.7-0.2-1.4-0.7-1.9c-0.9-1-2.3-1.1-3.4-0.4L68.4,99.8c-1.3,0.9-3.1,0.7-4-0.6L50.2,81
	c-1.7-2.2-4.4-3.6-7.3-3.6H28.7c-2.9,0-5.7,1.4-7.4,3.8l-14.5,20c-1.5,2-1.1,4.8,0.8,6.4l12.2,10.3c0.5,0.3,1,0.4,1.5,0.3
	c0.6-0.1,1.1-0.4,1.4-0.9c0.7-0.9,0.5-2.2-0.4-2.9l-8-6.5c-1.2-1-1.4-2.7-0.5-4l6.4-9c0.9-1.3,2.8-1.6,4.1-0.7
	c1.3,0.9,1.6,2.8,0.7,4.1l-4.8,6.8l5.9,4.8c3.3,2.7,3.9,7.5,1.5,10.9c-1.3,1.8-3.1,2.9-5.3,3.3c-0.4,0.1-0.9,0.1-1.3,0.1
	c0,0,0,0,0,0L20.9,125.5z"/>
</svg>
