<?xml version="1.0" encoding="utf-8"?>
<!-- Generator: Adobe Illustrator 25.4.2, SVG Export Plug-In . SVG Version: 6.00 Build 0)  -->
<svg version="1.1" id="Camada_1" xmlns="http://www.w3.org/2000/svg" xmlns:xlink="http://www.w3.org/1999/xlink" x="0px" y="0px"
	 viewBox="0 0 150 150" style="enable-background:new 0 0 150 150;" xml:space="preserve">
<style type="text/css">
	.st0{fill:#FADC81;}
	.st1{fill:#1E1E1E;}
</style>
<g>
	<circle class="st0" cx="81.2" cy="78.5" r="68.8"/>
	<g>
		<g>
			<path class="st1" d="M68.8,140.4c-38,0-68.8-30.9-68.8-68.8c0-38,30.9-68.8,68.8-68.8c38,0,68.8,30.9,68.8,68.8
				C137.7,109.5,106.8,140.4,68.8,140.4z M68.8,9.9c-34,0-61.6,27.6-61.6,61.6c0,34,27.6,61.6,61.6,61.6c34,0,61.6-27.6,61.6-61.6
				C130.4,37.5,102.8,9.9,68.8,9.9z"/>
		</g>
		<g>
			<path class="st1" d="M49.1,96c-0.9,0-1.8-0.3-2.5-1c-1.4-1.4-1.5-3.7-0.1-5.1l18.8-19.8V33c0-2,1.6-3.6,3.6-3.6
				c2,0,3.6,1.6,3.6,3.6v38.6c0,0.9-0.4,1.8-1,2.5L51.7,94.9C51,95.6,50,96,49.1,96z"/>
		</g>
		<g>
			<path class="st1" d="M68.8,20.4c-2,0-3.6-1.6-3.6-3.6V6.3c0-2,1.6-3.6,3.6-3.6c2,0,3.6,1.6,3.6,3.6v10.5
				C72.4,18.8,70.8,20.4,68.8,20.4z"/>
		</g>
		<g>
			<path class="st1" d="M14.2,75.1H3.6c-2,0-3.6-1.6-3.6-3.6c0-2,1.6-3.6,3.6-3.6h10.5c2,0,3.6,1.6,3.6,3.6
				C17.8,73.5,16.2,75.1,14.2,75.1z"/>
		</g>
		<g>
			<path class="st1" d="M68.8,140.3c-2,0-3.6-1.6-3.6-3.6v-9.6c0-2,1.6-3.6,3.6-3.6c2,0,3.6,1.6,3.6,3.6v9.6
				C72.4,138.7,70.8,140.3,68.8,140.3z"/>
		</g>
		<g>
			<path class="st1" d="M134,75.1h-10.5c-2,0-3.6-1.6-3.6-3.6c0-2,1.6-3.6,3.6-3.6H134c2,0,3.6,1.6,3.6,3.6
				C137.6,73.5,136,75.1,134,75.1z"/>
		</g>
	</g>
</g>
</svg>
